HIERARCHY
ROOT Hips
{
 OFFSET 0.000000 0.000000 0.000000
 CHANNELS 6 Xposition Yposition Zposition Yrotation Xrotation Zrotation
 JOINT Chest
 {
  OFFSET 0.000000 9.588913 -0.003946
  CHANNELS 3 Yrotation Xrotation Zrotation
  JOINT Chest2
  {
   OFFSET 0.000000 9.541882 0.008053
   CHANNELS 3 Yrotation Xrotation Zrotation
   JOINT Chest3
   {
    OFFSET 0.000000 9.501360 0.000000
    CHANNELS 3 Yrotation Xrotation Zrotation
    JOINT Chest4
    {
     OFFSET 0.000000 9.491660 0.000000
     CHANNELS 3 Yrotation Xrotation Zrotation
     JOINT Neck
     {
      OFFSET 0.000000 14.331917 0.000000
      CHANNELS 3 Yrotation Xrotation Zrotation
      JOINT Head
      {
       OFFSET 0.000000 8.884799 0.017034
       CHANNELS 3 Yrotation Xrotation Zrotation
       End Site
       {
        OFFSET 0.000000 16.896195 0.008993
       }
      }
     }
     JOINT RightCollar
     {
      OFFSET -2.923010 9.499495 0.000000
      CHANNELS 3 Yrotation Xrotation Zrotation
      JOINT RightShoulder
      {
       OFFSET -13.795216 0.000000 0.000000
       CHANNELS 3 Yrotation Xrotation Zrotation
       JOINT RightElbow
       {
        OFFSET -30.272209 0.000000 0.000000
        CHANNELS 3 Yrotation Xrotation Zrotation
        JOINT RightWrist
        {
         OFFSET -24.478199 0.000000 0.000000
         CHANNELS 3 Yrotation Xrotation Zrotation
         End Site
         {
          OFFSET -18.090752 0.000000 0.000000
         }
        }
       }
      }
     }
     JOINT LeftCollar
     {
      OFFSET 2.923010 9.499495 0.000000
      CHANNELS 3 Yrotation Xrotation Zrotation
      JOINT LeftShoulder
      {
       OFFSET 13.795216 0.000000 0.000000
       CHANNELS 3 Yrotation Xrotation Zrotation
       JOINT LeftElbow
       {
        OFFSET 30.272209 0.000000 0.000000
        CHANNELS 3 Yrotation Xrotation Zrotation
        JOINT LeftWrist
        {
         OFFSET 24.478199 0.000000 0.000000
         CHANNELS 3 Yrotation Xrotation Zrotation
         End Site
         {
          OFFSET 18.090752 0.000000 0.000000
         }
        }
       }
      }
     }
    }
   }
  }
 }
 JOINT RightHip
 {
  OFFSET -7.826875 0.019532 0.001973
  CHANNELS 3 Yrotation Xrotation Zrotation
  JOINT RightKnee
  {
   OFFSET 0.000000 -40.546152 -0.001885
   CHANNELS 3 Yrotation Xrotation Zrotation
   JOINT RightAnkle
   {
    OFFSET 0.000000 -39.417092 -0.003189
    CHANNELS 3 Yrotation Xrotation Zrotation
    JOINT RightToe
    {
     OFFSET 0.000000 -7.579396 17.243563
     CHANNELS 3 Yrotation Xrotation Zrotation
     End Site
     {
      OFFSET 0.000000 -1.500329 6.694466
     }
    }
   }
  }
 }
 JOINT LeftHip
 {
  OFFSET 7.826875 0.019532 0.001973
  CHANNELS 3 Yrotation Xrotation Zrotation
  JOINT LeftKnee
  {
   OFFSET 0.000000 -40.546152 -0.001885
   CHANNELS 3 Yrotation Xrotation Zrotation
   JOINT LeftAnkle
   {
    OFFSET 0.000000 -39.417092 -0.003189
    CHANNELS 3 Yrotation Xrotation Zrotation
    JOINT LeftToe
    {
     OFFSET 0.000000 -7.579396 17.243563
     CHANNELS 3 Yrotation Xrotation Zrotation
     End Site
     {
      OFFSET 0.000000 -1.500329 6.694466
     }
    }
   }
  }
 }
}
MOTION
Frames: 13
Frame Time: 0.008333
0.000000 87.345680 0.000000 0.000000 -5.767889 0.000000 0.000000 11.653876 0.000000 0.000000 -5.885988 0.000000 0.000000 -0.000000 0.000000 0.000000 -0.000000 0.000000 0.000000 12.528808 0.000000 0.000000 0.711711 0.000000 0.000000 -0.000000 0.000000 0.000000 -0.000000 0.000000 2.309063 -0.000000 0.000000 -2.309063 -0.000000 -0.000000 0.000000 -0.000000 0.000000 0.000000 0.000000 0.000000 -2.309063 0.000000 0.000000 2.309063 -0.000000 0.000000 0.000000 8.520374 0.000000 0.000000 1.905768 0.000000 -0.000000 -4.658254 0.000000 0.000000 -0.000000 0.000000 0.000000 8.520374 0.000000 0.000000 1.905768 0.000000 -0.000000 -4.658254 0.000000 0.000000 -0.000000 0.000000
-1.788261 88.518611 22.358497 -63.734876 -6.676540 1.361889 2.500538 4.771627 1.004326 1.418077 2.738785 0.598853 1.777577 3.421087 0.759375 1.418077 2.738785 0.598853 0.586993 20.714158 -1.339958 1.455915 2.696241 -2.605026 -8.040672 5.270444 -6.862133 -12.141148 4.557218 89.420207 18.303484 -22.854539 10.086380 7.401705 -7.503649 -1.166618 -2.647545 3.997858 1.613301 8.964354 -4.594292 -89.499449 -9.403191 -17.671285 -12.580884 -5.748531 -7.171287 3.647231 -13.671323 6.599481 -12.227074 -0.990790 4.210654 -1.300948 -1.943784 -3.327499 8.113903 0.052639 -0.088778 0.032074 7.705885 7.922111 6.251205 2.979338 3.109555 2.523152 -0.810059 -5.837195 -8.285865 -0.011480 0.099338 -0.028236
-1.794528 88.515993 22.387295 -63.833840 -6.666228 1.360342 2.514111 4.777246 0.993229 1.424184 2.738196 0.595409 1.785185 3.420353 0.755112 1.424184 2.738196 0.595409 0.597838 20.714791 -1.355276 1.480048 2.698073 -2.635991 -8.018371 5.256245 -6.855578 -12.148558 4.560946 89.370930 18.316998 -22.867684 10.099854 7.360675 -7.492220 -1.142068 -2.622095 4.009765 1.613434 8.971031 -4.576141 -89.509820 -9.382358 -17.652743 -12.559393 -5.719146 -7.164550 3.638220 -13.648098 6.612483 -12.240413 -0.968223 4.143024 -1.296337 -1.911238 -3.298675 8.123969 0.047560 -0.089654 0.030962 7.758038 7.955551 6.241781 2.984523 3.089861 2.511957 -0.777481 -5.845258 -8.251082 -0.020546 0.095870 -0.034045
-1.801890 88.512717 22.419631 -63.924228 -6.656713 1.357225 2.525842 4.780665 0.984558 1.430301 2.738399 0.591155 1.792803 3.420614 0.749839 1.430301 2.738399 0.591155 0.606712 20.714808 -1.368490 1.500001 2.698663 -2.662573 -8.001775 5.248911 -6.845483 -12.165539 4.556794 89.326752 18.329493 -22.880554 10.115602 7.331797 -7.484199 -1.118229 -2.602642 4.022824 1.620173 8.981761 -4.555463 -89.526807 -9.361629 -17.640011 -12.537970 -5.701328 -7.159709 3.633799 -13.628578 6.624389 -12.255530 -0.944669 4.085242 -1.291137 -1.884896 -3.275159 8.135670 0.044231 -0.090771 0.030700 7.791974 7.987665 6.227940 2.991120 3.077788 2.506609 -0.744823 -5.856758 -8.218186 -0.025706 0.090755 -0.038932
-1.810172 88.508775 22.453718 -64.007952 -6.648882 1.352907 2.538752 4.782804 0.977628 1.437731 2.739192 0.586380 1.802059 3.421612 0.743928 1.437731 2.739192 0.586380 0.611985 20.712854 -1.378459 1.512518 2.695423 -2.682251 -7.996620 5.245867 -6.829853 -12.185859 4.548410 89.284255 18.340329 -22.897137 10.135634 7.318228 -7.483146 -1.099221 -2.593649 4.038510 1.633278 8.995064 -4.534143 -89.548858 -9.337610 -17.634451 -12.518577 -5.695535 -7.157521 3.630554 -13.606698 6.637774 -12.271051 -0.923419 4.034791 -1.285825 -1.864769 -3.256663 8.150250 0.042434 -0.091070 0.029600 7.810474 8.018904 6.211889 3.001078 3.073312 2.504120 -0.711802 -5.872367 -8.186890 -0.028409 0.085155 -0.042502
-1.819269 88.504199 22.488127 -64.087354 -6.644194 1.348436 2.553159 4.785785 0.972334 1.445953 2.740808 0.582049 1.812310 3.423635 0.738581 1.445953 2.740808 0.582049 0.614208 20.707899 -1.386761 1.519081 2.686489 -2.698072 -7.998302 5.244306 -6.809902 -12.204731 4.538152 89.238462 18.351734 -22.920433 10.158560 7.317758 -7.490134 -1.087378 -2.595011 4.055118 1.646823 9.013312 -4.511520 -89.572238 -9.309917 -17.634128 -12.503728 -5.697407 -7.157806 3.627467 -13.579991 6.654059 -12.286004 -0.906312 3.990624 -1.282586 -1.848929 -3.243660 8.167847 0.041657 -0.089859 0.027773 7.816513 8.050966 6.194899 3.015744 3.075677 2.501719 -0.677035 -5.891746 -8.156755 -0.029865 0.079773 -0.044623
-1.828773 88.498998 22.521701 -64.164967 -6.641409 1.344595 2.567994 4.789211 0.967400 1.454642 2.742883 0.578588 1.823153 3.426228 0.734327 1.454642 2.742883 0.578588 0.614997 20.700346 -1.394179 1.522845 2.672670 -2.711919 -8.003918 5.245392 -6.786742 -12.219685 4.526549 89.188133 18.366009 -22.946753 10.182431 7.328185 -7.502039 -1.080480 -2.602962 4.074567 1.658974 9.037485 -4.488331 -89.595896 -9.283307 -17.637893 -12.494256 -5.701799 -7.161234 3.625947 -13.548844 6.670566 -12.301368 -0.891053 3.952913 -1.279390 -1.835317 -3.236215 8.187529 0.040975 -0.087138 0.024722 7.815168 8.084394 6.176764 3.035256 3.079786 2.499930 -0.641324 -5.911874 -8.128926 -0.032177 0.075037 -0.045392
-1.838161 88.493183 22.553530 -64.241495 -6.637429 1.340859 2.582641 4.791993 0.962238 1.463521 2.744806 0.575563 1.834235 3.428628 0.730619 1.463521 2.744805 0.575563 0.615868 20.690943 -1.400444 1.526468 2.655390 -2.723731 -8.012104 5.245442 -6.762397 -12.229691 4.518776 89.137005 18.386825 -22.972919 10.204095 7.342110 -7.518025 -1.074837 -2.614282 4.098228 1.671089 9.063758 -4.465389 -89.618892 -9.259732 -17.647032 -12.490577 -5.707100 -7.167244 3.623710 -13.515833 6.682843 -12.316909 -0.876688 3.922034 -1.273534 -1.821166 -3.234101 8.206603 0.040078 -0.083017 0.021041 7.813564 8.117802 6.159316 3.057523 3.079429 2.498325 -0.608270 -5.929854 -8.104337 -0.034975 0.071758 -0.044638
-1.847377 88.486877 22.583431 -64.315916 -6.632141 1.337098 2.596807 4.795810 0.957507 1.471645 2.746778 0.572434 1.844374 3.431093 0.726775 1.471645 2.746778 0.572434 0.617768 20.679666 -1.406223 1.531863 2.634649 -2.734997 -8.021054 5.239172 -6.740200 -12.237050 4.520338 89.091084 18.420261 -22.996765 10.223930 7.349881 -7.534208 -1.071897 -2.626601 4.120901 1.682621 9.088713 -4.440682 -89.637939 -9.237279 -17.659068 -12.491399 -5.712887 -7.177342 3.618065 -13.482719 6.690616 -12.331561 -0.863235 3.897811 -1.266389 -1.806046 -3.236883 8.222733 0.038650 -0.077830 0.018857 7.813921 8.149813 6.144484 3.079145 3.076518 2.495547 -0.579768 -5.946960 -8.082137 -0.036135 0.069928 -0.043088
-1.856495 88.480259 22.611500 -64.387699 -6.625926 1.333184 2.610206 4.800362 0.953271 1.478932 2.748637 0.569010 1.853463 3.433418 0.722556 1.478932 2.748636 0.569010 0.620647 20.667834 -1.411626 1.538943 2.612894 -2.745874 -8.030130 5.230414 -6.721345 -12.246988 4.531375 89.055513 18.467052 -23.016116 10.245485 7.352625 -7.543387 -1.074299 -2.637304 4.139481 1.694267 9.108487 -4.411833 -89.651666 -9.214841 -17.668794 -12.495097 -5.717140 -7.190490 3.610605 -13.448786 6.695752 -12.344901 -0.849991 3.877885 -1.258196 -1.792310 -3.242341 8.235137 0.036605 -0.072152 0.018508 7.816055 8.179599 6.133224 3.103177 3.073280 2.489959 -0.558449 -5.963812 -8.060378 -0.035742 0.069191 -0.041491
-1.866968 88.473513 22.635822 -64.456357 -6.620880 1.314082 2.622789 4.804453 0.964829 1.485763 2.749949 0.565328 1.861979 3.435062 0.718010 1.485763 2.749949 0.565328 0.623731 20.657957 -1.416595 1.546228 2.594767 -2.755989 -8.039402 5.225620 -6.707867 -12.263575 4.548390 89.032418 18.518526 -23.030613 10.272322 7.357119 -7.544201 -1.079222 -2.644700 4.156560 1.705001 9.119289 -4.378888 -89.661582 -9.192940 -17.674989 -12.498864 -5.716211 -7.196453 3.604044 -13.412674 6.706521 -12.339563 -0.837911 3.862397 -1.249996 -1.779275 -3.270959 8.243876 0.030471 -0.048118 0.017607 7.823727 8.208376 6.139368 3.138797 3.064737 2.482690 -0.554970 -5.957805 -8.039671 -0.033021 0.050168 -0.038258
-1.876298 88.466922 22.661218 -64.522858 -6.614949 1.311453 2.633133 4.805555 0.961297 1.491684 2.750987 0.561631 1.869357 3.436364 0.713436 1.491684 2.750986 0.561631 0.626774 20.651364 -1.421445 1.553325 2.582733 -2.765815 -8.050027 5.227647 -6.701049 -12.285676 4.564413 89.021677 18.567626 -23.038754 10.304019 7.365930 -7.542548 -1.083153 -2.647408 4.174988 1.710138 9.118987 -4.344570 -89.665778 -9.172840 -17.679991 -12.499106 -5.706278 -7.192107 3.596045 -13.374378 6.711637 -12.352149 -0.828905 3.845282 -1.241064 -1.768193 -3.274343 8.251975 0.027515 -0.044381 0.018525 7.834395 8.240010 6.130941 3.183749 3.050618 2.475304 -0.558149 -5.966970 -8.021398 -0.030562 0.050235 -0.034601
-1.886144 88.460632 22.685525 -64.583784 -6.610331 1.308354 2.640588 4.805905 0.958351 1.495662 2.751217 0.558174 1.874306 3.436660 0.709144 1.495662 2.751217 0.558174 0.630575 20.649107 -1.425584 1.561490 2.578756 -2.774487 -8.061102 5.236726 -6.696522 -12.308434 4.573323 89.017963 18.610193 -23.043034 10.336838 7.379267 -7.541593 -1.083240 -2.644698 4.197713 1.709433 9.113141 -4.310511 -89.663376 -9.155222 -17.679419 -12.495654 -5.688569 -7.185918 3.583670 -13.334728 6.717881 -12.363444 -0.823037 3.832184 -1.232209 -1.759957 -3.278666 8.258668 0.024228 -0.041206 0.019622 7.846279 8.271224 6.124154 3.228568 3.037076 2.467341 -0.563155 -5.975793 -8.002423 -0.027972 0.050655 -0.032157
